<svg width="230" height="328" xmlns="http://www.w3.org/2000/svg">
  <g fill="none" fill-rule="evenodd">
    <path
      d="M62.01 181.786c0-1.633-.5-3.146-1.491-4.533-1-1.388-2.775-2.08-5.338-2.08H42.598v13.334h12.583c2.563 0 4.338-.708 5.338-2.133.992-1.421 1.492-2.95 1.492-4.588m-1.067-29.546c0-1.496-.48-2.9-1.442-4.216-.958-1.313-2.72-1.971-5.279-1.971H42.598v12.375h11.625c2.558 0 4.321-.659 5.28-1.975.962-1.317 1.441-2.721 1.441-4.213m19.733 30.613c0 3.629-.604 6.829-1.812 9.604-1.209 2.77-2.863 5.12-4.963 7.037-2.091 1.921-4.583 3.363-7.466 4.321-2.88.963-6.025 1.442-9.438 1.442h-33.07v-75.954h31.47c3.98 0 7.467.533 10.454 1.6 2.988 1.066 5.509 2.562 7.571 4.483 2.063 1.917 3.608 4.23 4.646 6.933 1.03 2.705 1.546 5.688 1.546 8.959 0 2.133-.325 4.054-.963 5.762-.637 1.709-1.408 3.184-2.296 4.425-.891 1.246-1.808 2.259-2.775 3.042a69.218 69.218 0 01-2.287 1.812c.78.5 1.704 1.142 2.775 1.921 1.062.784 2.092 1.813 3.092 3.096.991 1.28 1.829 2.842 2.504 4.692s1.012 4.125 1.012 6.825M93.586 205.257v-75.954h51.633v16.64h-32.967v12.697h28.163v16.642h-28.163v13.333h32.967v16.642zM210.606 205.257v-36.375l-10.775 18.77h-11.945l-10.775-18.77v36.375h-18.67v-75.954h18.353l17.062 33.495 17.071-33.495h18.346v75.954zM56.619 299.06H46.115c-2.025 0-3.63.508-4.809 1.52-1.183 1.013-1.775 2.321-1.775 3.921 0 1.521.571 2.85 1.713 3.988 1.137 1.141 2.846 1.708 5.125 1.708 2.025 0 3.604-.146 4.746-.442 1.137-.295 2.296-.991 3.483-2.091 1.346-1.263 2.021-3.542 2.021-6.83v-1.774zm.508 27.341v-5.57c-2.112 2.108-4.262 3.67-6.454 4.683-2.196 1.012-5.104 1.516-8.733 1.516-3.463 0-6.563-.529-9.304-1.583-2.742-1.05-5.084-2.55-7.021-4.492-1.942-1.937-3.421-4.279-4.434-7.025-1.012-2.737-1.516-5.712-1.516-8.92 0-2.534.441-5 1.329-7.405.883-2.404 2.275-4.512 4.175-6.329 1.9-1.812 4.304-3.266 7.217-4.366 2.908-1.096 6.391-1.646 10.437-1.646H56.62v-1.771c0-3.12-.8-5.317-2.404-6.58-1.604-1.266-4.221-1.9-7.846-1.9-2.7 0-4.767.338-6.2 1.013-1.438.675-3 1.854-4.683 3.542L22.573 266.66c1.775-1.771 3.504-3.225 5.192-4.367a24.91 24.91 0 015.504-2.783c1.983-.717 4.117-1.221 6.396-1.517 2.275-.296 4.85-.446 7.716-.446 9.788 0 17.234 2.025 22.342 6.075 5.1 4.05 7.654 10.254 7.654 18.604v44.175h-20.25zM135.34 265.268c0-2.363-.842-4.471-2.53-6.33-1.69-1.853-4.05-2.783-7.09-2.783h-12.526v18.225h12.525c3.042 0 5.4-.929 7.092-2.783 1.687-1.858 2.529-3.967 2.529-6.33m22.146 0c0 3.713-.654 7.297-1.959 10.76-1.308 3.458-3.27 6.537-5.883 9.237-2.617 2.704-5.846 4.875-9.683 6.52-3.842 1.642-8.25 2.467-13.225 2.467h-13.542v32.146h-22.15v-90.112h35.692c4.975 0 9.383.825 13.225 2.466 3.837 1.646 7.066 3.821 9.683 6.521 2.613 2.7 4.575 5.78 5.883 9.238a30.266 30.266 0 011.959 10.758"
      fill="#000" />
    <path
      d="M177.994 227.422l6.204-22.78h21.263l-14.934 22.78h-12.533zm-9.746 98.975V236.28h61.259v19.746h-39.105v15.063h33.409v19.741h-33.409v15.821h39.105v19.746h-61.259z"
      fill="#000" />
    <path
      d="M189.273 87.308c-4.937-1.6-10.354 8.187-12.045 11.896 6.237 1.445 12.379-5.034 12.045-11.896M74.494 105.633c2.658-.213 4.375-1.484 5.942-2.484 3.525-2.245 7.179-4.575 9.97-7.675 2.476-2.745 3.888-6.558 5.726-9.929 3.858-7.1 8.904-13.254 14.591-18.708 3.371-3.23 7.688-4.888 12.538-3.05 2.504.95 2.712 2.667 1.796 4.837-.342.809-.867 1.821-1.884 1.688-.925-.121-.558-1.154-.65-1.808-.154-1.163-.912-1.48-1.85-1.613-2.079-.296-3.8.458-5.462 1.746-5.375 4.162-8.971 9.95-12.838 15.458-3.304 4.692-6.508 9.5-7.758 15.375-.275 1.313-.92 2.709.242 3.73 1.104.97 2.27.007 3.258-.559 6.708-3.842 11.15-9.904 14.496-16.875 1.5-3.133 3.979-5.554 5.308-8.796.492-1.204 1.85-1.408 3.104-.796 1.209.588 1.717 1.43 1.496 2.938-.725 4.97-.43 10.05-1.42 14.996-.126.6-.438 1.296.25 1.625.887.42 1.087-.396 1.44-1.038 2.96-5.379 5.868-10.791 9-16.058.997-1.675 2.576-3.05 4.397-3.83 2.316-.987 4.446.609 4.433 3.622-.02 5.804.325 11.629-.487 17.412-.092.667-.713 1.508.204 1.875 1.05.417 1.254-.696 1.579-1.38 2.575-5.403 5-10.89 8.87-15.487 1.45-1.72 3.113-3.104 5.142-3.987 3.321-1.442 6.117.558 5.275 4.146-1.279 5.466-.525 10.958-.77 16.429-.213 4.762 1.845 6.325 6.483 5.654 3.23-.467 5.604-1.45 6.942-5.32 1.966-5.688 6.062-10.03 10.837-13.472 1.9-1.366 4.15-1.658 6.48-1.3 1.724.267 3.333.955 5.12 1.121 2.092.196 3.08 1.567 2.33 4.192-1.717 6.033-2.413 12.208-1.142 18.492.608 3.004 2.15 4.65 5.246 4.687 2.683.033 5.262-.312 7.804-1.204 3.687-1.304 7.479-2.338 10.895-4.342 1.567-.92 2.85-1.966 1.421-4.391-1.046-1.767.934-1.534 1.759-1.467 1.233.1 2.516 1.02 2.537 2.208.03 1.688.863 3.554-.7 5.175-2.204 2.288-5.158 2.917-7.825 4.104-4.716 2.092-9.708 3.2-14.85 3.484-6.725.366-10.02-2.825-11.242-10.992-.32-2.137-.391-4.287-.045-6.433.079-.53.083-1.063-.384-1.38-.637-.433-1.075 0-1.512.459-1.521 1.6-2.988 3.267-4.609 4.75-3.654 3.354-7.85 4.82-12.762 3.937-2.567-.462-4.933 1.067-7.504 1.18-6.009.258-9.534-3.042-10.096-9.267-.375-4.13.275-8.18.258-12.263 0-.745.463-1.833-.57-2.141-.838-.25-1.459.491-1.863 1.22-1.454 2.638-3 5.238-4.288 7.963-2.283 4.842-4.895 9.446-7.795 13.908-.95 1.459-1.884 1.459-3.2 1.317-1.388-.15-1.971-.88-2.28-2.308-1.291-5.934-.038-11.83.071-17.742.03-1.433.146-2.87.192-4.304.017-.6.133-1.383-.496-1.633-.9-.359-1.167.604-1.47 1.158-2.084 3.812-4.063 7.687-6.167 11.492-1.9 3.437-3.95 6.787-5.875 10.212-1.05 1.867-2.763 1.958-4.375 1.625-1.875-.387-1.863-2.267-1.721-3.767.358-3.75-.092-7.558.9-11.27.229-.867.533-2.409-.359-2.817-1.279-.583-1.395 1.096-1.837 1.858-3.542 6.134-7.758 11.559-13.883 15.096-2.005 1.158-4.046 2.133-6.417 1.746-1.604-.267-3.088-.796-3.72-2.592-.81-2.275-1.793-1.962-3.472-.7-3.579 2.696-7.233 5.409-11.492 6.78-7.55 2.429-9.183-1.192-10.541-7.463-.475-2.17-1.13-4.738-.6-7.208.125-.592-.046-1.325-.671-1.567-.87-.333-1.188.446-1.513 1.07-2.012 3.872-4.029 7.738-6.016 11.622-1.95 3.816-4.821 6.662-8.388 8.791-.866.517-1.787.838-2.796.846-.729.008-1.408-.154-1.733-.9-.337-.783.046-1.45.617-1.887 11.812-9.009 16.166-23.284 23.037-35.771 1.03-1.867 1.988-3.759 3.221-5.509 1.854-2.625 7.125-10.258 8.008-10.741 1.396-.767 2.267.287 3.075 1.079.975.954-.083 1.692-.587 2.325-1.113 1.392-5.858 10.65-8.463 17.392-2.237 6.262-2.62 9.712-2.887 15.758-.154 3.454 1.204 6.792 2.146 7.187.95.396 2.829.459 2.829.459M22.215 22.904c.375 10.254 1.037 20.058 1.683 29.866.488 7.338.725 14.704 1.667 21.988 1.458 11.296 3.433 22.491 7.77 33.058.45 1.108.717 2.658 2.067 2.717 1.363.058 1.721-1.538 2.204-2.559 3.392-7.133 4.867-14.912 6.78-22.533 2.075-8.254 2.962-16.725 3.166-25.225.117-4.992-.433-10.017-.9-15.004-.233-2.533 1.034-3.571 2.859-2.863 9.637 3.763 16.758-1.816 24.116-6.733 2.471-1.654 5.034-3.162 7.471-4.862 1.538-1.075 2.925-.396 4.021.445.862.667 1.592 2.575-.175 2.83-5.75.833-9.825 4.983-14.563 7.72-5.412 3.121-10.491 6.475-17.087 4.238-2.2-.75-3.125.317-2.8 2.929 2.52 20.208-2.017 39.33-8.433 58.125-.688 2.013-1.659 3.963-2.742 5.775-1.858 3.117-5.708 3.046-7.383-.196-4.188-8.112-6.25-16.925-7.809-25.95-1.096-6.337-2.4-12.637-2.779-19.066-.729-12.355-1.837-24.68-2.258-37.063-.234-6.742-.942-13.47-1.517-20.196-.108-1.267.058-3.075-1.358-3.487-1.709-.492-1.9 1.575-2.413 2.583-2.946 5.812-4.712 12.104-6.412 18.408-.792 2.942-1.417 5.93-2.138 8.896-.483 1.954-1.904 2.78-3.566 2.259-1.709-.534-.725-2.15-.392-3.15C4.73 25.583 6.848 14.783 12.256 5.283c.15-.263.255-.563.43-.805C13.994 2.7 15.18.533 17.727.866c2.775.358 2.721 3.125 2.988 5.054.783 5.767 1.641 11.55 1.5 16.984M90.591 42.849c-1.235-.252-2.048-.78-2.014-2.201.037-1.86 1.124-2.463 2.668-2.403 1.517.051 2.48 1.177 2.422 2.532-.085 1.87-1.978 1.512-3.076 2.072"
      fill="#231F20" fill-rule="nonzero" />
  </g>
</svg>